<svg width="156" height="48" viewBox="0 0 156 48" fill="none" xmlns="http://www.w3.org/2000/svg">
<g clip-path="url(#clip0_51_1710)">
<path d="M56.8086 25.9544C56.8086 38.1299 46.7603 48.0001 34.3651 48.0001C21.9699 48.0001 11.9217 38.1299 11.9217 25.9544C11.9217 13.7789 21.9699 3.90869 34.3651 3.90869C46.7603 3.90869 56.8086 13.7789 56.8086 25.9544Z" fill="url(#paint0_linear_51_1710)"/>
<path d="M17.8708 27.3577C17.8491 30.5578 15.2491 33.1351 12.0637 33.1142C8.87828 33.0933 6.31363 30.4821 6.33539 27.2821C6.35715 24.082 8.95708 21.5047 12.1425 21.5256C15.3279 21.5465 17.8926 24.1577 17.8708 27.3577Z" fill="#FDE400"/>
<path d="M11.4884 5.90801C11.4669 9.12868 8.88639 11.7224 5.72472 11.7013C2.56305 11.6802 0.0174495 9.0522 0.0389611 5.83154C0.0604728 2.61087 2.64095 0.0171192 5.80262 0.0382367C8.96429 0.0593543 11.5099 2.68734 11.4884 5.90801Z" fill="#FDE400"/>
<path d="M53.2523 15.3429V37.5156H49.5294V21.7097L42.6339 32.8593H42.1807L35.2852 21.678V37.5156H31.5623V15.3429H35.5766L42.4073 26.4293L49.2704 15.3429H53.2523Z" fill="white"/>
<path d="M68.4538 21.678H72.1767L65.961 38.0224C64.4071 42.1191 61.7741 44.0618 58.062 43.8506V40.6514C59.1627 40.7148 60.0475 40.4825 60.7166 39.9546C61.3856 39.4478 61.936 38.6453 62.3676 37.5473L62.5295 37.2305L55.6664 21.678H59.4864L64.31 33.1761L68.4538 21.678Z" fill="white"/>
<path d="M81.5001 37.9274C79.3203 37.9274 77.4643 37.4417 75.9319 36.4703C74.4212 35.4989 73.3637 34.1686 72.7594 32.4792L75.9643 30.6421C76.8708 33.1338 78.7484 34.3797 81.5972 34.3797C83.0001 34.3797 84.0468 34.1158 84.7374 33.5879C85.4496 33.0388 85.8058 32.3314 85.8058 31.4656C85.8058 30.5576 85.4281 29.8713 84.6727 29.4067C83.9173 28.921 82.5792 28.3931 80.6584 27.823C79.5793 27.5062 78.7052 27.2106 78.0362 26.9361C77.3672 26.6615 76.6549 26.2814 75.8996 25.7958C75.1658 25.289 74.6154 24.666 74.2485 23.9269C73.8816 23.1878 73.6982 22.322 73.6982 21.3295C73.6982 19.3657 74.4104 17.8136 75.8348 16.6733C77.2592 15.5119 78.975 14.9312 80.9822 14.9312C82.7951 14.9312 84.3813 15.364 85.741 16.2298C87.1007 17.0956 88.1474 18.2887 88.8812 19.8091L85.741 21.583C84.7914 19.5135 83.2051 18.4788 80.9822 18.4788C79.9031 18.4788 79.0398 18.7322 78.3923 19.239C77.7448 19.7247 77.4211 20.3899 77.4211 21.2345C77.4211 22.0581 77.7448 22.7127 78.3923 23.1984C79.0614 23.663 80.2592 24.1592 81.9857 24.6871C82.849 24.9616 83.4749 25.1728 83.8634 25.3206C84.2734 25.4473 84.8346 25.6585 85.5468 25.9541C86.2806 26.2498 86.8309 26.5454 87.1978 26.841C87.5647 27.1367 87.9532 27.5062 88.3632 27.9497C88.7949 28.3931 89.097 28.8999 89.2697 29.4701C89.4423 30.0402 89.5287 30.6843 89.5287 31.4023C89.5287 33.4084 88.7841 35.0027 87.2949 36.1852C85.8273 37.3467 83.8957 37.9274 81.5001 37.9274Z" fill="white"/>
<path d="M95.7038 31.0538C95.9628 32.2575 96.5563 33.1866 97.4844 33.8413C98.4124 34.4748 99.5455 34.7915 100.884 34.7915C102.74 34.7915 104.132 34.1369 105.06 32.8277L107.941 34.4748C106.344 36.7765 103.981 37.9274 100.851 37.9274C98.2182 37.9274 96.0923 37.146 94.4737 35.5834C92.855 33.9996 92.0457 32.0041 92.0457 29.5968C92.0457 27.2317 92.8442 25.2573 94.4413 23.6735C96.0384 22.0686 98.0887 21.2662 100.592 21.2662C102.966 21.2662 104.909 22.0792 106.419 23.7052C107.952 25.3312 108.718 27.3056 108.718 29.6285C108.718 29.9874 108.675 30.4626 108.588 31.0538H95.7038ZM95.6715 28.2664H105.189C104.952 26.9783 104.401 26.0069 103.538 25.3523C102.696 24.6977 101.704 24.3704 100.56 24.3704C99.2649 24.3704 98.1858 24.7188 97.3225 25.4157C96.4592 26.1125 95.9089 27.0628 95.6715 28.2664Z" fill="white"/>
<path d="M115.291 24.3387C116.175 22.3748 117.837 21.3929 120.276 21.3929V25.0989C118.938 25.0144 117.773 25.3312 116.78 26.0492C115.787 26.746 115.291 27.9074 115.291 29.5334V37.5156H111.794V21.678H115.291V24.3387Z" fill="white"/>
<path d="M133.834 21.678H137.654L131.341 37.5156H127.294L120.982 21.678H124.802L129.334 33.7146L133.834 21.678Z" fill="white"/>
<path d="M141.987 31.0538C142.246 32.2575 142.84 33.1866 143.768 33.8413C144.696 34.4748 145.829 34.7915 147.167 34.7915C149.023 34.7915 150.415 34.1369 151.343 32.8277L154.224 34.4748C152.627 36.7765 150.264 37.9274 147.135 37.9274C144.502 37.9274 142.376 37.146 140.757 35.5834C139.138 33.9996 138.329 32.0041 138.329 29.5968C138.329 27.2317 139.128 25.2573 140.725 23.6735C142.322 22.0686 144.372 21.2662 146.876 21.2662C149.25 21.2662 151.192 22.0792 152.703 23.7052C154.235 25.3312 155.001 27.3056 155.001 29.6285C155.001 29.9874 154.958 30.4626 154.872 31.0538H141.987ZM141.955 28.2664H151.473C151.235 26.9783 150.685 26.0069 149.822 25.3523C148.98 24.6977 147.987 24.3704 146.843 24.3704C145.548 24.3704 144.469 24.7188 143.606 25.4157C142.743 26.1125 142.192 27.0628 141.955 28.2664Z" fill="white"/>
</g>
<defs>
<linearGradient id="paint0_linear_51_1710" x1="7.58259" y1="79.494" x2="70.1495" y2="72.9445" gradientUnits="userSpaceOnUse">
<stop offset="0.0268033" stop-color="#FFB800"/>
<stop offset="0.40625" stop-color="#FDE400"/>
<stop offset="0.651042" stop-color="#FDE400"/>
<stop offset="1" stop-color="#FFB800"/>
</linearGradient>
<clipPath id="clip0_51_1710">
<rect width="156" height="48" fill="white"/>
</clipPath>
</defs>
</svg>
