<svg width="52" height="52" viewBox="0 0 52 52" fill="none" xmlns="http://www.w3.org/2000/svg">
    <g id="icon-1" clip-path="url(#clip0_51_1744)">
        <path d="M44.3848 7.61522C49.2607 12.4912 52 19.1044 52 26C52 40.3594 40.3594 52 26 52C11.6406 52 0 40.3594 0 26C0 19.1044 2.73928 12.4912 7.61523 7.61522C12.4912 2.73928 19.1044 0 26 0C32.8956 0 39.5088 2.73928 44.3848 7.61522Z" fill="#FDE400" />
        <circle cx="42.9998" cy="26.0001" r="5.665" transform="rotate(90 42.9998 26.0001)" fill="#282838" />
        <circle cx="25.6666" cy="25.9999" r="8.66667" transform="rotate(90 25.6666 25.9999)" fill="#282838" />
        <circle cx="8.33332" cy="26" r="5.665" transform="rotate(90 8.33332 26)" fill="#282838" />
    </g>
    <g id="icon-2" clip-path="url(#clip0_51_1755)">
        <path d="M26.3334 52C33.229 52 39.8422 49.2607 44.7182 44.3848C49.5941 39.5088 52.3334 32.8956 52.3334 26C52.3334 19.1044 49.5941 12.4912 44.7182 7.61522C39.8422 2.73928 33.229 -1.67016e-06 26.3334 -2.27299e-06L26.3334 26L26.3334 52Z" fill="#282838" />
        <path d="M0.333374 52C7.229 52 13.8422 49.2607 18.7182 44.3848C23.5941 39.5088 26.3334 32.8956 26.3334 26C26.3334 19.1044 23.5941 12.4912 18.7182 7.61522C13.8422 2.73927 7.22901 -3.94315e-06 0.333382 -4.54598e-06L0.333374 52Z" fill="#FDE400" />
    </g>
    <g id="icon-3">
        <circle cx="26.6666" cy="26" r="26" fill="#FDE400" />
        <circle cx="44.0015" cy="43.335" r="8.665" fill="#282838" />
    </g>
    <g id="icon-4">
        <rect width="24" height="24" rx="12" fill="#FDE400" />
        <path d="M10.5 8L14.5 12L10.5 16" stroke="#282838" stroke-width="1.4" stroke-linecap="round" stroke-linejoin="round" />
    </g>
    <g id="icon-5">
        <path d="M-8.74228e-07 20C-7.05622e-07 25.3043 2.10714 30.3914 5.85786 34.1421C9.60859 37.8929 14.6957 40 20 40C25.3043 40 30.3914 37.8929 34.1421 34.1421C37.8929 30.3914 40 25.3043 40 20L20 20L-8.74228e-07 20Z" fill="white" />
        <path d="M-1.74846e-06 0C-1.57985e-06 5.30433 2.10714 10.3914 5.85786 14.1421C9.60859 17.8929 14.6957 20 20 20C25.3043 20 30.3914 17.8929 34.1421 14.1421C37.8929 10.3914 40 5.30433 40 -1.74846e-06L-1.74846e-06 0Z" fill="white" />
    </g>
    <g id="icon-6">
        <path fill-rule="evenodd" clip-rule="evenodd" d="M40 0L20 -1.74846e-06L20 40C25.3043 40 30.3914 37.8929 34.1421 34.1421C37.8929 30.3914 40 25.3043 40 20L40 0Z" fill="white" />
        <path d="M1.74846e-06 20C1.28474e-06 25.3043 2.10714 30.3914 5.85786 34.1421C9.60859 37.8929 14.6957 40 20 40L20 -1.74846e-06L3.49691e-06 -3.49691e-06L1.74846e-06 20Z" fill="white" />
    </g>
    <g id="icon-7">
        <path d="M17.0711 2.92893C18.9464 4.8043 20 7.34784 20 10V20H0V10C0 7.34783 1.05357 4.8043 2.92893 2.92893C4.8043 1.05357 7.34784 0 10 0C12.6522 0 15.1957 1.05357 17.0711 2.92893Z" fill="white" />
        <path d="M37.0711 2.92893C38.9464 4.8043 40 7.34784 40 10V20H20V10C20 7.34783 21.0536 4.8043 22.9289 2.92893C24.8043 1.05357 27.3478 0 30 0C32.6522 0 35.1957 1.05357 37.0711 2.92893Z" fill="white" />
        <path d="M0 20C-2.2961e-07 22.6264 0.517315 25.2272 1.52241 27.6537C2.5275 30.0802 4.00069 32.285 5.85786 34.1421C7.71503 35.9993 9.91982 37.4725 12.3463 38.4776C14.7728 39.4827 17.3736 40 20 40C22.6264 40 25.2272 39.4827 27.6537 38.4776C30.0802 37.4725 32.285 35.9993 34.1421 34.1421C35.9993 32.285 37.4725 30.0802 38.4776 27.6537C39.4827 25.2272 40 22.6264 40 20H20L0 20Z" fill="white" />
    </g>
</svg>