<svg width="52" height="52" viewBox="0 0 52 52" fill="none" xmlns="http://www.w3.org/2000/svg">
    <g id="icon-1" clip-path="url(#clip0_51_1744)">
        <path d="M44.3848 7.61522C49.2607 12.4912 52 19.1044 52 26C52 40.3594 40.3594 52 26 52C11.6406 52 0 40.3594 0 26C0 19.1044 2.73928 12.4912 7.61523 7.61522C12.4912 2.73928 19.1044 0 26 0C32.8956 0 39.5088 2.73928 44.3848 7.61522Z" fill="#FDE400" />
        <circle cx="42.9998" cy="26.0001" r="5.665" transform="rotate(90 42.9998 26.0001)" fill="#282838" />
        <circle cx="25.6666" cy="25.9999" r="8.66667" transform="rotate(90 25.6666 25.9999)" fill="#282838" />
        <circle cx="8.33332" cy="26" r="5.665" transform="rotate(90 8.33332 26)" fill="#282838" />
    </g>
    <g id="icon-2" clip-path="url(#clip0_51_1755)">
        <path d="M26.3334 52C33.229 52 39.8422 49.2607 44.7182 44.3848C49.5941 39.5088 52.3334 32.8956 52.3334 26C52.3334 19.1044 49.5941 12.4912 44.7182 7.61522C39.8422 2.73928 33.229 -1.67016e-06 26.3334 -2.27299e-06L26.3334 26L26.3334 52Z" fill="#282838" />
        <path d="M0.333374 52C7.229 52 13.8422 49.2607 18.7182 44.3848C23.5941 39.5088 26.3334 32.8956 26.3334 26C26.3334 19.1044 23.5941 12.4912 18.7182 7.61522C13.8422 2.73927 7.22901 -3.94315e-06 0.333382 -4.54598e-06L0.333374 52Z" fill="#FDE400" />
    </g>
    <g id="icon-3">
        <circle cx="26.6666" cy="26" r="26" fill="#FDE400" />
        <circle cx="44.0015" cy="43.335" r="8.665" fill="#282838" />
    </g>
    <g id="icon-4">
        <rect width="24" height="24" rx="12" fill="#FDE400" />
        <path d="M10.5 8L14.5 12L10.5 16" stroke="#282838" stroke-width="1.4" stroke-linecap="round" stroke-linejoin="round" />
    </g>
</svg>