<svg width="151" height="44" viewBox="0 0 151 44" fill="none" xmlns="http://www.w3.org/2000/svg">
<path d="M150.509 38.9255C150.509 41.2703 148.57 43.1696 146.172 43.1696H5.1895C2.79241 43.1696 0.84668 41.2703 0.84668 38.9255V5.07977C0.84668 2.73607 2.79241 0.830078 5.1895 0.830078H146.171C148.57 0.830078 150.508 2.73607 150.508 5.07977L150.509 38.9255Z" fill="black"/>
<path d="M145.359 0.881447C147.971 0.881447 150.096 2.95357 150.096 5.50006V38.5C150.096 41.0465 147.971 43.1186 145.359 43.1186L5.64102 43.1186C3.02923 43.1186 0.903972 41.0465 0.903972 38.5V5.50006C0.903972 2.95357 3.02923 0.881442 5.64102 0.881442L145.359 0.881447ZM145.359 7.31879e-05H5.64102C2.53987 7.31879e-05 0 2.47644 0 5.50006V38.5C0 41.5236 2.53987 44 5.64102 44L145.359 44C148.46 44 151 41.5236 151 38.5V5.50006C151 2.47644 148.46 7.31879e-05 145.359 7.31879e-05Z" fill="#A6A6A6"/>
<path d="M33.9903 21.7623C33.9576 18.217 36.9676 16.4922 37.1052 16.4119C35.4005 13.9886 32.7583 13.6575 31.8298 13.6311C29.6106 13.4034 27.458 14.9258 26.3275 14.9258C25.1745 14.9258 23.4337 13.6531 21.5575 13.6905C19.1431 13.7268 16.8845 15.0897 15.6457 17.2061C13.0892 21.5214 14.9959 27.8629 17.4452 31.351C18.6704 33.0593 20.1021 34.9667 21.976 34.8996C23.8094 34.8259 24.4942 33.76 26.7066 33.76C28.8987 33.76 29.5418 34.8996 31.453 34.8567C33.4205 34.8259 34.6593 33.1407 35.8417 31.417C37.2576 29.459 37.8262 27.5307 37.8487 27.4317C37.8025 27.4163 34.0275 26.0116 33.9903 21.7623Z" fill="white"/>
<path d="M30.38 11.3365C31.3661 10.1342 32.0407 8.49852 31.8535 6.83862C30.4263 6.90022 28.6415 7.80112 27.6137 8.97702C26.7043 10.0132 25.892 11.7116 26.1019 13.3088C27.7051 13.4254 29.3511 12.5201 30.38 11.3365Z" fill="white"/>
<path d="M60.523 34.6544H57.9609L56.5574 30.3545H51.679L50.3421 34.6544H47.8477L52.6809 20.0156H55.6661L60.523 34.6544ZM56.1343 28.5505L54.8651 24.728C54.7308 24.3375 54.4792 23.4179 54.1081 21.9703H54.0629C53.9151 22.5929 53.6771 23.5125 53.3499 24.728L52.1032 28.5505H56.1343Z" fill="white"/>
<path d="M72.9521 29.2468C72.9521 31.042 72.4546 32.461 71.4595 33.5027C70.5682 34.43 69.4614 34.8931 68.1403 34.8931C66.7143 34.8931 65.6898 34.3937 65.066 33.3949H65.0208V38.9554H62.6155V27.5737C62.6155 26.4451 62.585 25.2868 62.5264 24.0988H64.6417L64.776 25.7719H64.8211C65.6233 24.5113 66.8406 23.8821 68.4743 23.8821C69.7514 23.8821 70.8175 24.3738 71.6705 25.3583C72.5256 26.3439 72.9521 27.6397 72.9521 29.2468ZM70.5016 29.3326C70.5016 28.3052 70.2647 27.4582 69.7886 26.7916C69.2685 26.0964 68.5701 25.7488 67.6947 25.7488C67.1012 25.7488 66.5619 25.9424 66.0802 26.3241C65.5973 26.7091 65.2814 27.2118 65.1336 27.8344C65.0592 28.1248 65.022 28.3624 65.022 28.5494V30.3094C65.022 31.0772 65.2634 31.7251 65.7463 32.2542C66.2291 32.7833 66.8564 33.0473 67.6281 33.0473C68.534 33.0473 69.2392 32.7063 69.7435 32.0265C70.2489 31.3456 70.5016 30.448 70.5016 29.3326Z" fill="white"/>
<path d="M85.4041 29.2468C85.4041 31.042 84.9066 32.461 83.9104 33.5027C83.0202 34.43 81.9134 34.8931 80.5923 34.8931C79.1663 34.8931 78.1418 34.3937 77.5191 33.3949H77.4739V38.9554H75.0686V27.5737C75.0686 26.4451 75.0382 25.2868 74.9795 24.0988H77.0949L77.2291 25.7719H77.2743C78.0753 24.5113 79.2926 23.8821 80.9274 23.8821C82.2034 23.8821 83.2695 24.3738 84.1247 25.3583C84.9765 26.3439 85.4041 27.6397 85.4041 29.2468ZM82.9536 29.3326C82.9536 28.3052 82.7156 27.4582 82.2395 26.7916C81.7194 26.0964 81.0233 25.7488 80.1467 25.7488C79.5521 25.7488 79.014 25.9424 78.5311 26.3241C78.0482 26.7091 77.7334 27.2118 77.5856 27.8344C77.5123 28.1248 77.4739 28.3624 77.4739 28.5494V30.3094C77.4739 31.0772 77.7154 31.7251 78.196 32.2542C78.6789 32.7822 79.3062 33.0473 80.0801 33.0473C80.9861 33.0473 81.6912 32.7063 82.1955 32.0265C82.7009 31.3456 82.9536 30.448 82.9536 29.3326Z" fill="white"/>
<path d="M99.3262 30.5489C99.3262 31.7941 98.8828 32.8072 97.9926 33.5893C97.0145 34.444 95.6527 34.8708 93.9029 34.8708C92.2873 34.8708 90.9921 34.5672 90.0117 33.9589L90.5691 32.0042C91.6251 32.6268 92.7837 32.9392 94.0462 32.9392C94.9521 32.9392 95.6572 32.739 96.1638 32.3408C96.6681 31.9426 96.9197 31.408 96.9197 30.7414C96.9197 30.1474 96.7121 29.6469 96.2958 29.241C95.8818 28.8351 95.1902 28.4578 94.2244 28.1091C91.5957 27.1532 90.2825 25.7529 90.2825 23.9115C90.2825 22.7081 90.7428 21.7214 91.6645 20.9536C92.5829 20.1847 93.8081 19.8008 95.3402 19.8008C96.7065 19.8008 97.8415 20.0329 98.7474 20.496L98.1461 22.4078C97.2999 21.959 96.3432 21.7346 95.2725 21.7346C94.4264 21.7346 93.7653 21.9381 93.2914 22.3429C92.8909 22.7048 92.6901 23.1459 92.6901 23.6684C92.6901 24.247 92.9191 24.7255 93.3794 25.1017C93.7799 25.4493 94.5076 25.8255 95.5636 26.2314C96.8554 26.7385 97.8042 27.3314 98.4146 28.0112C99.0227 28.6888 99.3262 29.5369 99.3262 30.5489Z" fill="white"/>
<path d="M107.279 25.8591H104.627V30.984C104.627 32.2875 105.095 32.9387 106.031 32.9387C106.461 32.9387 106.817 32.9024 107.099 32.8298L107.166 34.6107C106.692 34.7834 106.068 34.8703 105.295 34.8703C104.345 34.8703 103.603 34.5876 103.067 34.0233C102.534 33.4579 102.265 32.5097 102.265 31.1776V25.8569H100.686V24.0969H102.265V22.1642L104.627 21.469V24.0969H107.279V25.8591Z" fill="white"/>
<path d="M119.242 29.2895C119.242 30.912 118.766 32.2441 117.816 33.2858C116.819 34.3583 115.497 34.8929 113.849 34.8929C112.26 34.8929 110.996 34.3792 110.052 33.3518C109.109 32.3244 108.638 31.0275 108.638 29.4644C108.638 27.8287 109.123 26.489 110.096 25.4473C111.068 24.4045 112.379 23.8831 114.027 23.8831C115.616 23.8831 116.894 24.3968 117.858 25.4253C118.781 26.423 119.242 27.7111 119.242 29.2895ZM116.746 29.3654C116.746 28.3919 116.533 27.5571 116.101 26.8608C115.596 26.0182 114.876 25.598 113.941 25.598C112.975 25.598 112.24 26.0193 111.736 26.8608C111.304 27.5582 111.09 28.4062 111.09 29.4094C111.09 30.3829 111.304 31.2178 111.736 31.913C112.256 32.7556 112.982 33.1758 113.92 33.1758C114.838 33.1758 115.559 32.7468 116.079 31.891C116.523 31.1815 116.746 30.3378 116.746 29.3654Z" fill="white"/>
<path d="M127.059 26.1613C126.821 26.1184 126.567 26.0964 126.301 26.0964C125.455 26.0964 124.8 26.4077 124.34 27.0314C123.939 27.5814 123.739 28.2766 123.739 29.1159V34.6544H121.334L121.357 27.423C121.357 26.2064 121.326 25.0987 121.267 24.0999H123.362L123.45 26.1195H123.516C123.77 25.4254 124.171 24.8666 124.719 24.4475C125.255 24.0702 125.834 23.8821 126.457 23.8821C126.68 23.8821 126.881 23.8975 127.059 23.925V26.1613Z" fill="white"/>
<path d="M137.818 28.877C137.818 29.2972 137.789 29.6513 137.73 29.9406H130.514C130.542 30.9834 130.89 31.7809 131.561 32.3309C132.169 32.8226 132.955 33.069 133.921 33.069C134.989 33.069 135.964 32.9029 136.841 32.5696L137.217 34.1976C136.193 34.6332 134.984 34.8499 133.588 34.8499C131.909 34.8499 130.591 34.3681 129.632 33.4056C128.676 32.4431 128.196 31.1506 128.196 29.5292C128.196 27.9376 128.642 26.6121 129.534 25.555C130.468 24.4264 131.731 23.8621 133.319 23.8621C134.88 23.8621 136.061 24.4264 136.863 25.555C137.498 26.4515 137.818 27.5603 137.818 28.877ZM135.524 28.2687C135.54 27.5735 135.383 26.9729 135.057 26.4658C134.641 25.8135 134.001 25.4879 133.14 25.4879C132.354 25.4879 131.714 25.8058 131.226 26.4438C130.825 26.9509 130.587 27.5592 130.514 28.2676H135.524V28.2687Z" fill="white"/>
<path d="M55.3384 11.0096C55.3384 12.3043 54.9401 13.2789 54.1447 13.9334C53.408 14.5373 52.361 14.8398 51.0049 14.8398C50.3325 14.8398 49.7571 14.8112 49.2754 14.754V7.67987C49.9038 7.58087 50.5807 7.53027 51.3118 7.53027C52.6036 7.53027 53.5772 7.80417 54.2338 8.35197C54.9694 8.97127 55.3384 9.85677 55.3384 11.0096ZM54.0917 11.0415C54.0917 10.2022 53.8638 9.55867 53.408 9.10987C52.9522 8.66217 52.2866 8.43777 51.41 8.43777C51.0376 8.43777 50.7206 8.46197 50.4577 8.51257V13.8905C50.6033 13.9125 50.8695 13.9224 51.2565 13.9224C52.1613 13.9224 52.8597 13.6771 53.3516 13.1865C53.8435 12.6959 54.0917 11.9809 54.0917 11.0415Z" fill="white"/>
<path d="M61.9482 12.1405C61.9482 12.938 61.7146 13.5914 61.2476 14.104C60.7579 14.6309 60.1092 14.8938 59.2992 14.8938C58.5184 14.8938 57.8968 14.6419 57.4331 14.1359C56.9705 13.631 56.7393 12.9941 56.7393 12.2263C56.7393 11.4233 56.9773 10.7644 57.4557 10.2529C57.934 9.74141 58.5771 9.48511 59.3872 9.48511C60.1679 9.48511 60.7952 9.73701 61.2701 10.2419C61.7214 10.7325 61.9482 11.3661 61.9482 12.1405ZM60.7218 12.1779C60.7218 11.6994 60.6158 11.2891 60.4048 10.947C60.1566 10.5334 59.8035 10.3266 59.3443 10.3266C58.8693 10.3266 58.5083 10.5334 58.2601 10.947C58.048 11.2891 57.9431 11.706 57.9431 12.1988C57.9431 12.6773 58.0491 13.0876 58.2601 13.4297C58.5162 13.8433 58.8727 14.0501 59.333 14.0501C59.7843 14.0501 60.1385 13.84 60.3935 13.4187C60.6124 13.07 60.7218 12.6564 60.7218 12.1779Z" fill="white"/>
<path d="M70.8111 9.59058L69.147 14.776H68.0639L67.3746 12.5243C67.1997 11.9622 67.0576 11.4034 66.947 10.849H66.9256C66.8229 11.4188 66.6807 11.9765 66.498 12.5243L65.7658 14.776H64.6703L63.1055 9.59058H64.3205L64.9219 12.0557C65.0674 12.6387 65.187 13.1942 65.2829 13.72H65.3043C65.3923 13.2866 65.5379 12.7344 65.7432 12.0667L66.498 9.59168H67.4615L68.1846 12.0139C68.3595 12.6046 68.5017 13.1733 68.6111 13.7211H68.6438C68.7239 13.1876 68.8446 12.6189 69.0048 12.0139L69.6502 9.59168H70.8111V9.59058Z" fill="white"/>
<path d="M76.941 14.776H75.7587V11.806C75.7587 10.8908 75.4022 10.4332 74.6869 10.4332C74.336 10.4332 74.0528 10.5586 73.8328 10.8105C73.6151 11.0624 73.5045 11.3594 73.5045 11.6993V14.7749H72.3222V11.0723C72.3222 10.6169 72.3075 10.123 72.2793 9.58839H73.3184L73.3737 10.3991H73.4064C73.544 10.1472 73.7493 9.93929 74.019 9.77319C74.3394 9.57959 74.6982 9.48169 75.0908 9.48169C75.5872 9.48169 76.0001 9.63789 76.3284 9.95139C76.7368 10.3353 76.941 10.9084 76.941 11.6696V14.776Z" fill="white"/>
<path d="M80.2017 14.7759H79.0205V7.21118H80.2017V14.7759Z" fill="white"/>
<path d="M87.163 12.1405C87.163 12.938 86.9295 13.5914 86.4624 14.104C85.9728 14.6309 85.3229 14.8938 84.514 14.8938C83.7322 14.8938 83.1105 14.6419 82.6479 14.1359C82.1854 13.631 81.9541 12.9941 81.9541 12.2263C81.9541 11.4233 82.1922 10.7644 82.6705 10.2529C83.1489 9.74141 83.7919 9.48511 84.6009 9.48511C85.3827 9.48511 86.0089 9.73701 86.485 10.2419C86.9362 10.7325 87.163 11.3661 87.163 12.1405ZM85.9355 12.1779C85.9355 11.6994 85.8295 11.2891 85.6185 10.947C85.3714 10.5334 85.0172 10.3266 84.5591 10.3266C84.083 10.3266 83.722 10.5334 83.4749 10.947C83.2628 11.2891 83.1579 11.706 83.1579 12.1988C83.1579 12.6773 83.2639 13.0876 83.4749 13.4297C83.731 13.8433 84.0875 14.0501 84.5478 14.0501C84.9991 14.0501 85.3522 13.84 85.6072 13.4187C85.8272 13.07 85.9355 12.6564 85.9355 12.1779Z" fill="white"/>
<path d="M92.8847 14.7761H91.8231L91.7351 14.1788H91.7023C91.3391 14.6551 90.8212 14.8938 90.1488 14.8938C89.6468 14.8938 89.2406 14.7365 88.9349 14.4241C88.6573 14.1403 88.5186 13.7872 88.5186 13.3681C88.5186 12.7345 88.7893 12.2516 89.3342 11.9172C89.878 11.5828 90.643 11.4189 91.6279 11.4266V11.3298C91.6279 10.6467 91.2601 10.3057 90.5234 10.3057C89.9988 10.3057 89.5362 10.4344 89.1368 10.6896L88.8965 9.93281C89.3907 9.63471 90.001 9.48511 90.7208 9.48511C92.1108 9.48511 92.808 10.2001 92.808 11.6301V13.5397C92.808 14.0578 92.8339 14.4703 92.8847 14.7761ZM91.6572 12.9941V12.1944C90.353 12.1724 89.7009 12.5211 89.7009 13.2394C89.7009 13.51 89.7754 13.7124 89.9277 13.8477C90.08 13.983 90.274 14.0501 90.5053 14.0501C90.7648 14.0501 91.0074 13.9698 91.2285 13.8103C91.4508 13.6497 91.5873 13.4462 91.638 13.1965C91.6504 13.1404 91.6572 13.0722 91.6572 12.9941Z" fill="white"/>
<path d="M99.6033 14.7759H98.554L98.4988 13.9432H98.466C98.131 14.5768 97.5601 14.8936 96.7579 14.8936C96.1171 14.8936 95.5835 14.6483 95.1604 14.1577C94.7373 13.6671 94.5264 13.0302 94.5264 12.2481C94.5264 11.4088 94.7554 10.729 95.2157 10.2098C95.6613 9.72578 96.2074 9.48378 96.8572 9.48378C97.5714 9.48378 98.0712 9.71808 98.3555 10.1878H98.378V7.21118H99.5615V13.3789C99.5615 13.8838 99.5751 14.3491 99.6033 14.7759ZM98.378 12.5891V11.7245C98.378 11.5749 98.3668 11.4539 98.3453 11.3615C98.2788 11.0843 98.1355 10.8511 97.9177 10.663C97.6977 10.4749 97.4326 10.3803 97.1269 10.3803C96.6857 10.3803 96.3405 10.5508 96.0867 10.8929C95.8351 11.235 95.7076 11.6717 95.7076 12.2052C95.7076 12.7178 95.8283 13.1336 96.0709 13.4537C96.327 13.7947 96.6722 13.9652 97.1043 13.9652C97.4924 13.9652 97.8027 13.8233 98.0385 13.5384C98.2664 13.2755 98.378 12.9587 98.378 12.5891Z" fill="white"/>
<path d="M109.715 12.1405C109.715 12.938 109.481 13.5914 109.014 14.104C108.525 14.6309 107.877 14.8938 107.066 14.8938C106.286 14.8938 105.665 14.6419 105.2 14.1359C104.737 13.631 104.506 12.9941 104.506 12.2263C104.506 11.4233 104.744 10.7644 105.222 10.2529C105.701 9.74141 106.344 9.48511 107.155 9.48511C107.934 9.48511 108.563 9.73701 109.037 10.2419C109.488 10.7325 109.715 11.3661 109.715 12.1405ZM108.49 12.1779C108.49 11.6994 108.383 11.2891 108.173 10.947C107.923 10.5334 107.571 10.3266 107.111 10.3266C106.637 10.3266 106.276 10.5334 106.027 10.947C105.815 11.2891 105.71 11.706 105.71 12.1988C105.71 12.6773 105.816 13.0876 106.027 13.4297C106.283 13.8433 106.639 14.0501 107.1 14.0501C107.551 14.0501 107.906 13.84 108.161 13.4187C108.379 13.07 108.49 12.6564 108.49 12.1779Z" fill="white"/>
<path d="M116.073 14.776H114.891V11.806C114.891 10.8908 114.535 10.4332 113.819 10.4332C113.468 10.4332 113.185 10.5586 112.966 10.8105C112.747 11.0624 112.637 11.3594 112.637 11.6993V14.7749H111.454V11.0723C111.454 10.6169 111.44 10.123 111.412 9.58839H112.45L112.505 10.3991H112.538C112.677 10.1472 112.882 9.93929 113.151 9.77319C113.472 9.57959 113.83 9.48169 114.224 9.48169C114.719 9.48169 115.132 9.63789 115.46 9.95139C115.87 10.3353 116.073 10.9084 116.073 11.6696V14.776Z" fill="white"/>
<path d="M124.03 10.454H122.728V12.973C122.728 13.6132 122.959 13.9333 123.417 13.9333C123.63 13.9333 123.806 13.9157 123.944 13.8794L123.975 14.7539C123.741 14.8397 123.434 14.8826 123.056 14.8826C122.589 14.8826 122.226 14.744 121.963 14.4668C121.699 14.1896 121.568 13.7232 121.568 13.0687V10.454H120.791V9.59047H121.568V8.64007L122.727 8.29907V9.58937H124.029V10.454H124.03Z" fill="white"/>
<path d="M130.29 14.7759H129.106V11.8279C129.106 10.8984 128.75 10.4331 128.036 10.4331C127.487 10.4331 127.113 10.7026 126.907 11.2416C126.872 11.3549 126.852 11.4935 126.852 11.6563V14.7748H125.671V7.21118H126.852V10.3363H126.875C127.247 9.76758 127.781 9.48378 128.472 9.48378C128.962 9.48378 129.367 9.63998 129.688 9.95348C130.089 10.344 130.29 10.9248 130.29 11.6926V14.7759Z" fill="white"/>
<path d="M136.746 11.938C136.746 12.1448 136.73 12.3186 136.702 12.4605H133.156C133.172 12.9731 133.341 13.3636 133.669 13.6342C133.969 13.8762 134.356 13.9972 134.83 13.9972C135.355 13.9972 135.833 13.9158 136.264 13.7519L136.449 14.5527C135.945 14.7661 135.351 14.8728 134.664 14.8728C133.841 14.8728 133.192 14.6363 132.723 14.1633C132.251 13.6903 132.018 13.0556 132.018 12.2592C132.018 11.4771 132.235 10.8259 132.674 10.3067C133.132 9.7523 133.752 9.4751 134.533 9.4751C135.298 9.4751 135.879 9.7523 136.272 10.3067C136.589 10.7467 136.746 11.2912 136.746 11.938ZM135.618 11.6399C135.627 11.2978 135.549 11.003 135.389 10.7544C135.183 10.4343 134.871 10.2737 134.448 10.2737C134.062 10.2737 133.747 10.4299 133.507 10.7434C133.31 10.9931 133.194 11.2912 133.156 11.6399H135.618Z" fill="white"/>
</svg>
