<svg width="151" height="44" viewBox="0 0 151 44" fill="none" xmlns="http://www.w3.org/2000/svg">
<path d="M145.367 44L5.63327 44C2.53638 44 0 41.5236 0 38.5V5.50001C0 2.47638 2.53638 7.04954e-06 5.63327 7.04954e-06H145.367C148.464 7.04954e-06 151 2.47638 151 5.50001V38.5C151 41.5236 148.464 44 145.367 44Z" fill="black"/>
<path d="M145.367 0.881376C147.975 0.881376 150.097 2.9535 150.097 5.50001V38.5C150.097 41.0465 147.975 43.1186 145.367 43.1186L5.63327 43.1186C3.02507 43.1186 0.902731 41.0465 0.902731 38.5V5.5C0.902731 2.9535 3.02507 0.881362 5.63327 0.881362L145.367 0.881376ZM145.367 2.32537e-06L5.63327 -1.18471e-05C2.53638 -1.18471e-05 0 2.47637 0 5.5V38.5C0 41.5236 2.53638 44 5.63327 44L145.367 44C148.464 44 151 41.5236 151 38.5V5.50001C151 2.47638 148.464 2.32537e-06 145.367 2.32537e-06Z" fill="#A6A6A6"/>
<path d="M53.423 11.2681C53.423 12.1866 53.1413 12.9223 52.5865 13.4709C51.9485 14.1213 51.1176 14.4485 50.0994 14.4485C49.1262 14.4485 48.2953 14.1158 47.6137 13.4599C46.9307 12.7944 46.5898 11.9776 46.5898 11C46.5898 10.0224 46.9307 9.20564 47.6137 8.54564C48.2953 7.88426 49.1262 7.55151 50.0994 7.55151C50.5838 7.55151 51.0458 7.64914 51.4866 7.83064C51.926 8.01351 52.2837 8.26101 52.5428 8.56626L51.9541 9.14651C51.5021 8.62539 50.8866 8.36826 50.0994 8.36826C49.3896 8.36826 48.7741 8.61026 48.2517 9.09839C47.7348 9.58789 47.4757 10.2218 47.4757 11C47.4757 11.7783 47.7348 12.4176 48.2517 12.9071C48.7741 13.3898 49.3896 13.6373 50.0994 13.6373C50.8528 13.6373 51.4866 13.3898 51.9865 12.9016C52.3161 12.5785 52.5034 12.133 52.5527 11.5638H50.0994V10.769H53.3723C53.4117 10.9409 53.423 11.1073 53.423 11.2681Z" fill="white" stroke="white" stroke-width="0.16" stroke-miterlimit="10"/>
<path d="M58.6156 8.51251H55.5412V10.6025H58.3128V11.3973H55.5412V13.4873H58.6156V14.2971H54.6709V7.70264H58.6156V8.51251Z" fill="white" stroke="white" stroke-width="0.16" stroke-miterlimit="10"/>
<path d="M62.2795 14.2971H61.4092V8.51251H59.5234V7.70264H64.1667V8.51251H62.2795V14.2971Z" fill="white" stroke="white" stroke-width="0.16" stroke-miterlimit="10"/>
<path d="M67.5273 14.2971V7.70264H68.3963V14.2971H67.5273Z" fill="white" stroke="white" stroke-width="0.16" stroke-miterlimit="10"/>
<path d="M72.2483 14.2971H71.385V8.51251H69.4922V7.70264H74.141V8.51251H72.2483V14.2971Z" fill="white" stroke="white" stroke-width="0.16" stroke-miterlimit="10"/>
<path d="M82.9315 13.4489C82.2653 14.1158 81.4401 14.4485 80.4557 14.4485C79.4656 14.4485 78.6403 14.1158 77.9742 13.4489C77.3095 12.7834 76.9785 11.9666 76.9785 11C76.9785 10.0334 77.3095 9.21664 77.9742 8.55114C78.6403 7.88426 79.4656 7.55151 80.4557 7.55151C81.4344 7.55151 82.2597 7.88426 82.9258 8.55664C83.5962 9.22764 83.9272 10.0389 83.9272 11C83.9272 11.9666 83.5962 12.7834 82.9315 13.4489ZM78.6178 12.8961C79.1192 13.3898 79.729 13.6373 80.4557 13.6373C81.1767 13.6373 81.7921 13.3898 82.2879 12.8961C82.7878 12.4025 83.0413 11.7686 83.0413 11C83.0413 10.2314 82.7878 9.59751 82.2879 9.10389C81.7921 8.61026 81.1767 8.36276 80.4557 8.36276C79.729 8.36276 79.1192 8.61026 78.6178 9.10389C78.1178 9.59751 77.8644 10.2314 77.8644 11C77.8644 11.7686 78.1178 12.4025 78.6178 12.8961Z" fill="white" stroke="white" stroke-width="0.16" stroke-miterlimit="10"/>
<path d="M85.1484 14.2971V7.70264H86.2047L89.4889 12.8314H89.5269L89.4889 11.5636V7.70264H90.3578V14.2971H89.4508L86.0117 8.91539H85.9737L86.0117 10.1886V14.2971H85.1484Z" fill="white" stroke="white" stroke-width="0.16" stroke-miterlimit="10"/>
<path d="M76.764 23.9279C74.1178 23.9279 71.956 25.8941 71.956 28.607C71.956 31.2979 74.1178 33.2847 76.764 33.2847C79.4158 33.2847 81.5776 31.2979 81.5776 28.607C81.5776 25.8941 79.4158 23.9279 76.764 23.9279ZM76.764 31.4422C75.312 31.4422 74.0628 30.2721 74.0628 28.607C74.0628 26.9199 75.312 25.7704 76.764 25.7704C78.216 25.7704 79.4708 26.9199 79.4708 28.607C79.4708 30.2721 78.216 31.4422 76.764 31.4422ZM66.2734 23.9279C63.6216 23.9279 61.4654 25.8941 61.4654 28.607C61.4654 31.2979 63.6216 33.2847 66.2734 33.2847C68.9239 33.2847 71.0814 31.2979 71.0814 28.607C71.0814 25.8941 68.9239 23.9279 66.2734 23.9279ZM66.2734 31.4422C64.82 31.4422 63.5666 30.2721 63.5666 28.607C63.5666 26.9199 64.82 25.7704 66.2734 25.7704C67.7254 25.7704 68.9746 26.9199 68.9746 28.607C68.9746 30.2721 67.7254 31.4422 66.2734 31.4422ZM53.7901 25.362V27.3502H58.653C58.5108 28.4612 58.1305 29.278 57.5475 29.8472C56.8377 30.5347 55.7322 31.2979 53.7901 31.2979C50.7974 31.2979 48.454 28.9397 48.454 26.0179C48.454 23.096 50.7974 20.7379 53.7901 20.7379C55.4083 20.7379 56.5856 21.3552 57.4546 22.1555L58.8896 20.7544C57.6742 19.6214 56.0575 18.751 53.7901 18.751C49.6863 18.751 46.2373 22.0111 46.2373 26.0179C46.2373 30.0246 49.6863 33.2847 53.7901 33.2847C56.0082 33.2847 57.6742 32.5752 58.984 31.2442C60.3261 29.9339 60.7444 28.0914 60.7444 26.6036C60.7444 26.1416 60.7049 25.7167 60.6345 25.362H53.7901ZM104.836 26.9034C104.44 25.857 103.219 23.9279 100.732 23.9279C98.2676 23.9279 96.2157 25.824 96.2157 28.607C96.2157 31.2277 98.2465 33.2847 100.969 33.2847C103.17 33.2847 104.44 31.9744 104.963 31.2112L103.329 30.1484C102.784 30.9266 102.042 31.4422 100.969 31.4422C99.9026 31.4422 99.1379 30.9651 98.6478 30.0246L105.057 27.4355L104.836 26.9034ZM98.3014 28.4612C98.2465 26.6572 99.7365 25.7332 100.804 25.7332C101.641 25.7332 102.35 26.1416 102.587 26.726L98.3014 28.4612ZM93.092 33.0001H95.1989V19.2501H93.092V33.0001ZM89.6416 24.9701H89.5712C89.098 24.4229 88.1953 23.9279 87.0518 23.9279C84.652 23.9279 82.4578 25.9849 82.4578 28.6221C82.4578 31.2442 84.652 33.2847 87.0518 33.2847C88.1953 33.2847 89.098 32.7856 89.5712 32.2219H89.6416V32.8929C89.6416 34.6817 88.6629 35.6429 87.0841 35.6429C85.7969 35.6429 84.9984 34.7354 84.6689 33.9722L82.8367 34.7189C83.3648 35.9591 84.7632 37.4854 87.0841 37.4854C89.5543 37.4854 91.6386 36.0664 91.6386 32.6137V24.2125H89.6416V24.9701ZM87.232 31.4422C85.78 31.4422 84.5647 30.2556 84.5647 28.6221C84.5647 26.9735 85.78 25.7704 87.232 25.7704C88.6629 25.7704 89.7909 26.9735 89.7909 28.6221C89.7909 30.2556 88.6629 31.4422 87.232 31.4422ZM114.7 19.2501H109.661V33.0001H111.762V27.7902H114.7C117.033 27.7902 119.322 26.1416 119.322 23.5195C119.322 20.8987 117.028 19.2501 114.7 19.2501ZM114.755 25.8776H111.762V21.1627H114.755C116.324 21.1627 117.219 22.4346 117.219 23.5195C117.219 24.5837 116.324 25.8776 114.755 25.8776ZM127.744 23.9017C126.225 23.9017 124.647 24.5562 123.998 26.0069L125.862 26.77C126.264 26.0069 127.001 25.7594 127.782 25.7594C128.872 25.7594 129.977 26.3987 129.994 27.5276V27.672C129.614 27.4575 128.8 27.1399 127.799 27.1399C125.79 27.1399 123.744 28.2192 123.744 30.2336C123.744 32.0761 125.389 33.2627 127.238 33.2627C128.652 33.2627 129.432 32.6399 129.922 31.9152H129.994V32.9781H132.024V27.7036C132.024 25.2657 130.159 23.9017 127.744 23.9017ZM127.49 31.4367C126.803 31.4367 125.845 31.104 125.845 30.2721C125.845 29.2079 127.04 28.7995 128.073 28.7995C128.998 28.7995 129.432 28.9989 129.994 29.2615C129.829 30.5347 128.707 31.4367 127.49 31.4367ZM139.417 24.2029L137.002 30.1635H136.93L134.433 24.2029H132.167L135.919 32.5326L133.778 37.1677H135.974L141.755 24.2029H139.417ZM120.477 33.0001H122.584V19.2501H120.477V33.0001Z" fill="white"/>
<path d="M11.7569 8.29261C11.4259 8.63086 11.2344 9.15748 11.2344 9.83948V34.166C11.2344 34.848 11.4259 35.3746 11.7569 35.7129L11.8385 35.7871L25.8006 22.1609V21.8391L11.8385 8.21286L11.7569 8.29261Z" fill="url(#paint0_linear_48_942)"/>
<path d="M30.4496 26.7053L25.8008 22.1609V21.8392L30.4553 17.2948L30.5595 17.354L36.0716 20.4161C37.6447 21.2851 37.6447 22.7151 36.0716 23.5896L30.5595 26.6462L30.4496 26.7053Z" fill="url(#paint1_linear_48_942)"/>
<path d="M30.5593 26.6462L25.8006 22.0001L11.7568 35.713C12.2793 36.2492 13.1314 36.3138 14.1003 35.7776L30.5593 26.6462Z" fill="url(#paint2_linear_48_942)"/>
<path d="M30.5593 17.3539L14.1003 8.2225C13.1314 7.69175 12.2793 7.75638 11.7568 8.29263L25.8006 22L30.5593 17.3539Z" fill="url(#paint3_linear_48_942)"/>
<defs>
<linearGradient id="paint0_linear_48_942" x1="24.5609" y1="34.4193" x2="6.10559" y2="15.5168" gradientUnits="userSpaceOnUse">
<stop stop-color="#00A0FF"/>
<stop offset="0.0066" stop-color="#00A1FF"/>
<stop offset="0.2601" stop-color="#00BEFF"/>
<stop offset="0.5122" stop-color="#00D2FF"/>
<stop offset="0.7604" stop-color="#00DFFF"/>
<stop offset="1" stop-color="#00E3FF"/>
</linearGradient>
<linearGradient id="paint1_linear_48_942" x1="38.1201" y1="21.9985" x2="10.8585" y2="21.9985" gradientUnits="userSpaceOnUse">
<stop stop-color="#FFE000"/>
<stop offset="0.4087" stop-color="#FFBD00"/>
<stop offset="0.7754" stop-color="#FFA500"/>
<stop offset="1" stop-color="#FF9C00"/>
</linearGradient>
<linearGradient id="paint2_linear_48_942" x1="27.9716" y1="19.4744" x2="2.94469" y2="-6.159" gradientUnits="userSpaceOnUse">
<stop stop-color="#FF3A44"/>
<stop offset="1" stop-color="#C31162"/>
</linearGradient>
<linearGradient id="paint3_linear_48_942" x1="8.22173" y1="43.8062" x2="19.3974" y2="32.3598" gradientUnits="userSpaceOnUse">
<stop stop-color="#32A071"/>
<stop offset="0.0685" stop-color="#2DA771"/>
<stop offset="0.4762" stop-color="#15CF74"/>
<stop offset="0.8009" stop-color="#06E775"/>
<stop offset="1" stop-color="#00F076"/>
</linearGradient>
</defs>
</svg>
