<svg width="155" height="48" viewBox="0 0 155 48" fill="none" xmlns="http://www.w3.org/2000/svg">
<path d="M56.8085 25.9543C56.8085 38.1298 46.7603 48 34.3651 48C21.9699 48 11.9216 38.1298 11.9216 25.9543C11.9216 13.7788 21.9699 3.90857 34.3651 3.90857C46.7603 3.90857 56.8085 13.7788 56.8085 25.9543Z" fill="url(#paint0_linear_8101_37683)"/>
<path d="M11.4883 5.90801C11.4668 9.12868 8.88636 11.7224 5.72469 11.7013C2.56302 11.6802 0.017419 9.0522 0.0389306 5.83154C0.0604422 2.61087 2.64092 0.0171192 5.80259 0.0382367C8.96426 0.0593543 11.5099 2.68734 11.4883 5.90801Z" fill="url(#paint1_linear_8101_37683)"/>
<path d="M53.2503 15.3429V37.5156H49.5274V21.7097L42.6319 32.8593H42.1787L35.2832 21.678V37.5156H31.5603V15.3429H35.5746L42.4053 26.4293L49.2684 15.3429H53.2503Z" fill="white"/>
<path d="M68.4518 21.678H72.1747L65.959 38.0224C64.4051 42.1191 61.7721 44.0618 58.06 43.8506V40.6514C59.1607 40.7148 60.0455 40.4825 60.7146 39.9546C61.3836 39.4478 61.934 38.6453 62.3656 37.5473L62.5275 37.2305L55.6644 21.678H59.4844L64.308 33.1761L68.4518 21.678Z" fill="white"/>
<path d="M81.4981 37.9274C79.3184 37.9274 77.4623 37.4417 75.93 36.4703C74.4192 35.4989 73.3617 34.1686 72.7574 32.4792L75.9623 30.6421C76.8688 33.1338 78.7464 34.3797 81.5953 34.3797C82.9981 34.3797 84.0448 34.1158 84.7355 33.5879C85.4477 33.0388 85.8038 32.3314 85.8038 31.4656C85.8038 30.5576 85.4261 29.8713 84.6707 29.4067C83.9153 28.921 82.5772 28.3931 80.6564 27.823C79.5773 27.5062 78.7033 27.2106 78.0342 26.9361C77.3652 26.6615 76.653 26.2814 75.8976 25.7958C75.1638 25.289 74.6135 24.666 74.2466 23.9269C73.8797 23.1878 73.6962 22.322 73.6962 21.3295C73.6962 19.3657 74.4084 17.8136 75.8328 16.6733C77.2573 15.5119 78.973 14.9312 80.9802 14.9312C82.7931 14.9312 84.3794 15.364 85.739 16.2298C87.0987 17.0956 88.1454 18.2887 88.8792 19.8091L85.739 21.583C84.7894 19.5135 83.2031 18.4788 80.9802 18.4788C79.9011 18.4788 79.0378 18.7322 78.3903 19.239C77.7429 19.7247 77.4191 20.3899 77.4191 21.2345C77.4191 22.0581 77.7429 22.7127 78.3903 23.1984C79.0594 23.663 80.2572 24.1592 81.9837 24.6871C82.847 24.9616 83.4729 25.1728 83.8614 25.3206C84.2715 25.4473 84.8326 25.6585 85.5448 25.9541C86.2786 26.2498 86.8289 26.5454 87.1958 26.841C87.5627 27.1367 87.9512 27.5062 88.3613 27.9497C88.7929 28.3931 89.095 28.8999 89.2677 29.4701C89.4404 30.0402 89.5267 30.6843 89.5267 31.4023C89.5267 33.4084 88.7821 35.0027 87.2929 36.1852C85.8254 37.3467 83.8938 37.9274 81.4981 37.9274Z" fill="white"/>
<path d="M95.7019 31.0538C95.9608 32.2575 96.5544 33.1866 97.4824 33.8413C98.4104 34.4748 99.5435 34.7915 100.882 34.7915C102.738 34.7915 104.13 34.1369 105.058 32.8277L107.939 34.4748C106.342 36.7765 103.979 37.9274 100.849 37.9274C98.2162 37.9274 96.0903 37.146 94.4717 35.5834C92.853 33.9996 92.0437 32.0041 92.0437 29.5968C92.0437 27.2317 92.8422 25.2573 94.4393 23.6735C96.0364 22.0686 98.0867 21.2662 100.59 21.2662C102.964 21.2662 104.907 22.0792 106.417 23.7052C107.95 25.3312 108.716 27.3056 108.716 29.6285C108.716 29.9874 108.673 30.4626 108.586 31.0538H95.7019ZM95.6695 28.2664H105.187C104.95 26.9783 104.399 26.0069 103.536 25.3523C102.694 24.6977 101.702 24.3704 100.558 24.3704C99.2629 24.3704 98.1838 24.7188 97.3205 25.4157C96.4572 26.1125 95.9069 27.0628 95.6695 28.2664Z" fill="white"/>
<path d="M115.289 24.3387C116.173 22.3748 117.835 21.3929 120.274 21.3929V25.0989C118.936 25.0144 117.771 25.3312 116.778 26.0492C115.785 26.746 115.289 27.9074 115.289 29.5334V37.5156H111.792V21.678H115.289V24.3387Z" fill="white"/>
<path d="M133.832 21.678H137.652L131.339 37.5156H127.292L120.98 21.678H124.8L129.332 33.7146L133.832 21.678Z" fill="white"/>
<path d="M141.985 31.0538C142.244 32.2575 142.838 33.1866 143.766 33.8413C144.694 34.4748 145.827 34.7915 147.165 34.7915C149.021 34.7915 150.413 34.1369 151.341 32.8277L154.222 34.4748C152.625 36.7765 150.262 37.9274 147.133 37.9274C144.5 37.9274 142.374 37.146 140.755 35.5834C139.136 33.9996 138.327 32.0041 138.327 29.5968C138.327 27.2317 139.126 25.2573 140.723 23.6735C142.32 22.0686 144.37 21.2662 146.874 21.2662C149.248 21.2662 151.19 22.0792 152.701 23.7052C154.233 25.3312 154.999 27.3056 154.999 29.6285C154.999 29.9874 154.956 30.4626 154.87 31.0538H141.985ZM141.953 28.2664H151.471C151.233 26.9783 150.683 26.0069 149.82 25.3523C148.978 24.6977 147.985 24.3704 146.841 24.3704C145.546 24.3704 144.467 24.7188 143.604 25.4157C142.741 26.1125 142.19 27.0628 141.953 28.2664Z" fill="white"/>
<defs>
<linearGradient id="paint0_linear_8101_37683" x1="21.4983" y1="4.00538" x2="53.0656" y2="66.0544" gradientUnits="userSpaceOnUse">
<stop stop-color="#FDE401"/>
<stop offset="1" stop-color="#FDC500"/>
</linearGradient>
<linearGradient id="paint1_linear_8101_37683" x1="5.80259" y1="0.0382367" x2="5.72469" y2="11.7013" gradientUnits="userSpaceOnUse">
<stop stop-color="#FDE401"/>
<stop offset="1" stop-color="#FDC500"/>
</linearGradient>
</defs>
</svg>
